<svg width="98" height="49" viewBox="0 0 98 49" fill="none" xmlns="http://www.w3.org/2000/svg">
<rect width="98" height="49" rx="3" fill="black"/>
<path d="M14.6537 22.972C14.5791 22.972 14.4951 22.9487 14.4017 22.902L10.0057 19.99C9.9404 19.9527 9.88907 19.9013 9.85173 19.836C9.82373 19.7613 9.80973 19.6867 9.80973 19.612C9.80973 19.5467 9.8284 19.4813 9.86573 19.416C9.90307 19.3413 9.9544 19.2853 10.0197 19.248L14.6817 16.266C14.7564 16.2193 14.8357 16.196 14.9197 16.196C15.0317 16.196 15.1297 16.2427 15.2137 16.336C15.3071 16.42 15.3537 16.5227 15.3537 16.644C15.3537 16.7093 15.3351 16.7793 15.2977 16.854C15.2604 16.9193 15.2091 16.9707 15.1437 17.008L11.0557 19.626L14.8917 22.16C14.9571 22.1973 15.0037 22.2533 15.0317 22.328C15.0691 22.3933 15.0877 22.4633 15.0877 22.538C15.0877 22.65 15.0457 22.7527 14.9617 22.846C14.8777 22.93 14.7751 22.972 14.6537 22.972ZM23.3581 23.098C23.2648 23.098 23.1761 23.07 23.0921 23.014C23.0175 22.958 22.9661 22.8833 22.9381 22.79L21.7901 19.458L18.3041 20.228L17.2821 22.804C17.2541 22.888 17.2028 22.9533 17.1281 23C17.0535 23.056 16.9695 23.084 16.8761 23.084C16.7548 23.084 16.6521 23.042 16.5681 22.958C16.4935 22.874 16.4561 22.7667 16.4561 22.636C16.4561 22.58 16.4748 22.5007 16.5121 22.398L17.2821 20.424C17.1981 20.452 17.1141 20.466 17.0301 20.466C16.9181 20.4567 16.8248 20.4147 16.7501 20.34C16.6755 20.256 16.6381 20.1533 16.6381 20.032C16.6381 19.9293 16.6708 19.836 16.7361 19.752C16.8015 19.668 16.8808 19.6167 16.9741 19.598L17.6741 19.444L19.9141 13.718C19.9515 13.634 20.0121 13.5687 20.0961 13.522C20.1801 13.466 20.2641 13.438 20.3481 13.438C20.4415 13.438 20.5255 13.466 20.6001 13.522C20.6748 13.5687 20.7308 13.6387 20.7681 13.732L23.7221 22.328C23.7781 22.496 23.8061 22.608 23.8061 22.664C23.8061 22.776 23.7641 22.8787 23.6801 22.972C23.5961 23.056 23.4888 23.098 23.3581 23.098ZM21.4821 18.618L20.2921 15.132L18.6821 19.22L21.4821 18.618ZM25.8229 23.084C25.7016 23.084 25.5942 23.042 25.5009 22.958C25.4169 22.8647 25.3749 22.7573 25.3749 22.636L25.3889 13.984C25.3889 13.872 25.4309 13.774 25.5149 13.69C25.5989 13.5967 25.7016 13.55 25.8229 13.55C25.9722 13.55 26.0982 13.6107 26.2009 13.732L31.3669 21.236V13.984C31.3669 13.8627 31.4089 13.76 31.4929 13.676C31.5862 13.5827 31.6936 13.536 31.8149 13.536C31.9362 13.536 32.0389 13.5827 32.1229 13.676C32.2162 13.76 32.2629 13.8627 32.2629 13.984V22.636C32.2629 22.7573 32.2209 22.8647 32.1369 22.958C32.0529 23.042 31.9456 23.084 31.8149 23.084C31.7589 23.084 31.6936 23.0653 31.6189 23.028C31.5442 22.9907 31.4882 22.944 31.4509 22.888L26.2849 15.412L26.2709 22.636C26.2709 22.7573 26.2242 22.8647 26.1309 22.958C26.0469 23.042 25.9442 23.084 25.8229 23.084ZM36.6617 23.098C36.1484 23.098 35.5744 23.0187 34.9397 22.86C34.8371 22.832 34.7531 22.776 34.6877 22.692C34.6224 22.608 34.5897 22.5147 34.5897 22.412V13.998C34.5897 13.8767 34.6317 13.774 34.7157 13.69C34.8091 13.606 34.9211 13.564 35.0517 13.564C36.0131 13.564 36.9791 13.7087 37.9497 13.998C38.9297 14.278 39.7744 14.8147 40.4837 15.608C41.2024 16.392 41.5617 17.4793 41.5617 18.87C41.5617 19.8127 41.3471 20.6013 40.9177 21.236C40.4884 21.8707 39.9051 22.342 39.1677 22.65C38.4304 22.9487 37.5951 23.098 36.6617 23.098ZM36.6617 22.202C37.9031 22.202 38.8784 21.922 39.5877 21.362C40.2971 20.7927 40.6517 19.962 40.6517 18.87C40.6517 17.4047 40.1757 16.322 39.2237 15.622C38.2717 14.922 37.0304 14.5347 35.4997 14.46V22.062C35.9944 22.1553 36.3817 22.202 36.6617 22.202ZM43.8424 23.084C43.7211 23.084 43.6138 23.042 43.5204 22.958C43.4364 22.8647 43.3944 22.7573 43.3944 22.636V14.166C43.3944 13.9887 43.4178 13.858 43.4644 13.774C43.5204 13.69 43.6231 13.634 43.7724 13.606C43.9218 13.578 44.1644 13.564 44.5004 13.564H44.9064C46.4838 13.564 47.6971 13.816 48.5464 14.32C49.3958 14.824 49.8204 15.538 49.8204 16.462C49.8204 17.694 48.9758 18.6087 47.2864 19.206C47.7251 19.486 48.2058 19.9013 48.7284 20.452C49.2604 20.9933 49.7224 21.656 50.1144 22.44C50.1518 22.4867 50.1704 22.552 50.1704 22.636C50.1704 22.7573 50.1284 22.8647 50.0444 22.958C49.9604 23.042 49.8531 23.084 49.7224 23.084C49.5638 23.084 49.4331 23 49.3304 22.832C48.0238 20.676 46.7684 19.598 45.5644 19.598C45.2564 19.598 44.8271 19.64 44.2764 19.724V22.636C44.2764 22.7573 44.2344 22.8647 44.1504 22.958C44.0664 23.042 43.9638 23.084 43.8424 23.084ZM44.2764 18.856C45.0044 18.8373 45.7231 18.744 46.4324 18.576C47.1511 18.3987 47.7484 18.1327 48.2244 17.778C48.7004 17.4233 48.9384 16.9847 48.9384 16.462C48.9384 15.7993 48.5838 15.2953 47.8744 14.95C47.1651 14.6047 46.1618 14.432 44.8644 14.432C44.6031 14.432 44.4071 14.4367 44.2764 14.446V18.856ZM51.3703 23.014C51.2303 23.014 51.1089 22.972 51.0063 22.888C50.9036 22.7947 50.8523 22.678 50.8523 22.538C50.8523 22.4073 50.8943 22.2813 50.9783 22.16L57.0963 14.488H51.5243C51.4029 14.488 51.2956 14.446 51.2023 14.362C51.1183 14.2687 51.0763 14.1613 51.0763 14.04C51.0763 13.928 51.1183 13.83 51.2023 13.746C51.2956 13.6527 51.4029 13.606 51.5243 13.606H57.8383C57.9783 13.606 58.0996 13.6573 58.2023 13.76C58.3049 13.8533 58.3563 13.97 58.3563 14.11C58.3563 14.2407 58.3143 14.348 58.2303 14.432L52.1123 22.118H57.7403C57.8709 22.118 57.9783 22.1647 58.0623 22.258C58.1556 22.342 58.2023 22.4447 58.2023 22.566C58.2023 22.6873 58.1556 22.7947 58.0623 22.888C57.9689 22.972 57.8616 23.014 57.7403 23.014H51.3703ZM63.4247 23.084C62.258 23.084 61.3574 22.65 60.7227 21.782C60.0974 20.9047 59.752 19.626 59.6867 17.946C59.668 17.4793 59.6587 16.938 59.6587 16.322L59.6727 15.076C59.682 14.824 59.6867 14.4553 59.6867 13.97C59.6867 13.858 59.7287 13.76 59.8127 13.676C59.906 13.592 60.0134 13.55 60.1347 13.55C60.2654 13.55 60.368 13.592 60.4427 13.676C60.5267 13.76 60.5687 13.8627 60.5687 13.984C60.5687 14.4413 60.564 14.782 60.5547 15.006L60.5407 16.028C60.5407 16.5413 60.55 17.1153 60.5687 17.75C60.6154 19.0473 60.8394 20.13 61.2407 20.998C61.6514 21.866 62.3887 22.3 63.4527 22.3C64.3207 22.3 65.002 22.034 65.4967 21.502C65.9914 20.9607 66.2947 20.1907 66.4067 19.192C66.4907 18.3893 66.5327 17.442 66.5327 16.35L66.5187 14.012C66.5187 13.8907 66.556 13.7833 66.6307 13.69C66.7054 13.5967 66.8127 13.55 66.9527 13.55C67.0834 13.55 67.1907 13.5967 67.2747 13.69C67.3587 13.774 67.4007 13.872 67.4007 13.984C67.4007 14.0307 67.41 14.32 67.4287 14.852C67.4474 15.3747 67.4567 15.902 67.4567 16.434C67.4567 17.4793 67.4007 18.436 67.2887 19.304C66.962 21.824 65.674 23.084 63.4247 23.084ZM69.9964 23.084C69.8844 23.0933 69.7817 23.0513 69.6884 22.958C69.6044 22.8553 69.5624 22.748 69.5624 22.636V13.984C69.5624 13.872 69.6044 13.774 69.6884 13.69C69.7817 13.5967 69.8891 13.55 70.0104 13.55C70.1317 13.55 70.2344 13.5967 70.3184 13.69C70.4117 13.774 70.4584 13.872 70.4584 13.984V22.174L74.7844 21.88C74.9151 21.8707 75.0224 21.908 75.1064 21.992C75.1904 22.076 75.2324 22.1833 75.2324 22.314C75.2324 22.426 75.1904 22.524 75.1064 22.608C75.0224 22.692 74.9244 22.7387 74.8124 22.748L69.9964 23.084ZM76.2264 24.708C76.1144 24.708 76.0211 24.6707 75.9464 24.596C75.8717 24.5213 75.8344 24.4327 75.8344 24.33C75.8344 24.2553 75.8484 24.1807 75.8764 24.106L80.3144 13.592C80.3797 13.4613 80.5011 13.396 80.6784 13.396C80.7811 13.396 80.8697 13.438 80.9444 13.522C81.0284 13.5967 81.0704 13.676 81.0704 13.76C81.0704 13.8347 81.0517 13.9093 81.0144 13.984C80.9771 14.0587 80.9537 14.1007 80.9444 14.11L76.5624 24.512C76.5437 24.5773 76.5017 24.624 76.4364 24.652C76.3804 24.6893 76.3104 24.708 76.2264 24.708ZM83.22 22.972C83.108 22.972 83.0054 22.93 82.912 22.846C82.828 22.7527 82.786 22.65 82.786 22.538C82.786 22.3793 82.856 22.2533 82.996 22.16L86.818 19.626L82.73 17.008C82.6647 16.9707 82.6134 16.9193 82.576 16.854C82.5387 16.7887 82.52 16.7187 82.52 16.644C82.52 16.5227 82.562 16.42 82.646 16.336C82.7394 16.2427 82.8467 16.196 82.968 16.196C83.0334 16.196 83.1127 16.2193 83.206 16.266L87.854 19.248C87.9194 19.2853 87.9707 19.3413 88.008 19.416C88.0454 19.4813 88.064 19.5467 88.064 19.612C88.064 19.7893 87.9987 19.9153 87.868 19.99L83.472 22.902C83.3974 22.9487 83.3134 22.972 83.22 22.972ZM11.7044 37.084C11.611 37.084 11.5224 37.056 11.4384 37C11.3637 36.944 11.317 36.8693 11.2984 36.776L8.72238 28.292C8.67572 28.1427 8.65238 28.0353 8.65238 27.97C8.65238 27.8487 8.68972 27.7507 8.76438 27.676C8.84838 27.592 8.95105 27.55 9.07238 27.55C9.17505 27.55 9.26372 27.578 9.33838 27.634C9.41305 27.69 9.46905 27.7647 9.50638 27.858L11.7184 35.166L14.0844 27.844C14.159 27.648 14.3037 27.55 14.5184 27.55C14.6117 27.55 14.6957 27.578 14.7704 27.634C14.8544 27.69 14.9057 27.7647 14.9244 27.858L16.9404 35.18L19.6004 27.816C19.6377 27.7227 19.6937 27.6527 19.7684 27.606C19.843 27.55 19.927 27.522 20.0204 27.522C20.1417 27.522 20.2444 27.564 20.3284 27.648C20.4124 27.732 20.4544 27.8253 20.4544 27.928C20.4544 27.9747 20.4451 28.0447 20.4264 28.138L17.3044 36.804C17.2764 36.888 17.2251 36.9533 17.1504 37C17.0757 37.056 16.9917 37.084 16.8984 37.084C16.6744 37.084 16.5297 36.9767 16.4644 36.762L14.4764 29.524L12.1384 36.776C12.073 36.9813 11.9284 37.084 11.7044 37.084ZM22.207 37C22.0857 37 21.9783 36.9533 21.885 36.86C21.7917 36.7667 21.745 36.6593 21.745 36.538V28.068C21.745 27.9467 21.787 27.844 21.871 27.76C21.9643 27.6667 22.0763 27.62 22.207 27.62H28.129C28.2597 27.62 28.367 27.662 28.451 27.746C28.535 27.83 28.577 27.9373 28.577 28.068C28.577 28.1893 28.5303 28.2967 28.437 28.39C28.353 28.474 28.2503 28.516 28.129 28.516H22.641V31.666H27.457C27.5877 31.666 27.6903 31.708 27.765 31.792C27.849 31.8667 27.891 31.9693 27.891 32.1C27.891 32.2307 27.849 32.3427 27.765 32.436C27.681 32.52 27.5783 32.562 27.457 32.562H22.641V36.104H28.101C28.2317 36.104 28.339 36.146 28.423 36.23C28.507 36.314 28.549 36.4167 28.549 36.538C28.549 36.6687 28.5023 36.7807 28.409 36.874C28.325 36.958 28.2223 37 28.101 37H22.207ZM30.7546 37.112C30.3719 37.112 30.1806 36.9347 30.1806 36.58V28.04C30.1806 27.9187 30.2226 27.816 30.3066 27.732C30.3999 27.6387 30.5072 27.592 30.6286 27.592H33.1486C33.8206 27.592 34.3852 27.7087 34.8426 27.942C35.3092 28.166 35.6546 28.46 35.8786 28.824C36.1119 29.1787 36.2286 29.5473 36.2286 29.93C36.2286 30.3873 36.1399 30.7793 35.9626 31.106C35.7946 31.4327 35.5752 31.694 35.3046 31.89C36.4712 32.3193 37.0546 33.0893 37.0546 34.2C37.0546 35.1333 36.5272 35.852 35.4726 36.356C34.4179 36.86 32.8452 37.112 30.7546 37.112ZM33.7226 31.652C34.0212 31.652 34.2966 31.5727 34.5486 31.414C34.8006 31.2553 34.9966 31.0453 35.1366 30.784C35.2766 30.5227 35.3466 30.252 35.3466 29.972C35.3466 29.524 35.1506 29.16 34.7586 28.88C34.3666 28.5907 33.8299 28.446 33.1486 28.446H31.0906V31.652H33.7226ZM31.0906 36.272C32.5652 36.2627 33.7786 36.0853 34.7306 35.74C35.6826 35.3947 36.1586 34.8813 36.1586 34.2C36.1586 33.696 35.9486 33.29 35.5286 32.982C35.1086 32.6647 34.5486 32.506 33.8486 32.506H31.0906V36.272ZM46.198 37.084C45.3673 37.084 44.658 36.9067 44.07 36.552C43.4913 36.188 43.0853 35.7167 42.852 35.138C42.796 35.0447 42.768 34.9513 42.768 34.858C42.768 34.7273 42.8146 34.62 42.908 34.536C43.0013 34.4427 43.1133 34.396 43.244 34.396C43.4773 34.396 43.6313 34.5173 43.706 34.76C43.8646 35.1987 44.1726 35.558 44.63 35.838C45.0966 36.1087 45.6193 36.244 46.198 36.244C46.6553 36.244 47.0613 36.1647 47.416 36.006C47.78 35.8473 48.06 35.6327 48.256 35.362C48.4613 35.0913 48.564 34.788 48.564 34.452C48.564 34.0227 48.3866 33.6493 48.032 33.332C47.6773 33.0147 47.0753 32.7393 46.226 32.506C44.2753 31.974 43.3 31.106 43.3 29.902C43.3 29.4447 43.426 29.0387 43.678 28.684C43.9393 28.3293 44.3126 28.0493 44.798 27.844C45.2926 27.6387 45.8666 27.536 46.52 27.536C47.444 27.536 48.1626 27.7133 48.676 28.068C49.1893 28.4133 49.446 28.88 49.446 29.468C49.446 29.5893 49.404 29.6967 49.32 29.79C49.236 29.874 49.1333 29.916 49.012 29.916C48.9 29.916 48.802 29.8787 48.718 29.804C48.6433 29.7293 48.6013 29.6407 48.592 29.538C48.5453 29.1833 48.3306 28.894 47.948 28.67C47.5746 28.446 47.0846 28.334 46.478 28.334C45.75 28.334 45.1853 28.4693 44.784 28.74C44.392 29.0107 44.196 29.384 44.196 29.86C44.196 30.2613 44.378 30.602 44.742 30.882C45.1153 31.162 45.6846 31.4093 46.45 31.624C47.458 31.904 48.2093 32.2727 48.704 32.73C49.208 33.178 49.46 33.7287 49.46 34.382C49.46 34.886 49.3106 35.348 49.012 35.768C48.7133 36.1787 48.312 36.5007 47.808 36.734C47.304 36.9673 46.7673 37.084 46.198 37.084ZM53.7546 37.084C53.6333 37.084 53.5306 37.042 53.4466 36.958C53.3626 36.8647 53.3206 36.7573 53.3206 36.636V28.502H50.6746C50.5533 28.502 50.4459 28.46 50.3526 28.376C50.2686 28.292 50.2266 28.1893 50.2266 28.068C50.2266 27.9467 50.2686 27.844 50.3526 27.76C50.4459 27.6667 50.5533 27.62 50.6746 27.62H56.8486C56.9699 27.62 57.0726 27.662 57.1566 27.746C57.2406 27.83 57.2826 27.9373 57.2826 28.068C57.2826 28.1893 57.2406 28.292 57.1566 28.376C57.0726 28.46 56.9699 28.502 56.8486 28.502H54.2026V36.636C54.2026 36.7573 54.1559 36.8647 54.0626 36.958C53.9786 37.042 53.8759 37.084 53.7546 37.084ZM62.119 37.084C60.9524 37.084 60.0517 36.65 59.417 35.782C58.7917 34.9047 58.4464 33.626 58.381 31.946C58.3624 31.4793 58.353 30.938 58.353 30.322L58.367 29.076C58.3764 28.824 58.381 28.4553 58.381 27.97C58.381 27.858 58.423 27.76 58.507 27.676C58.6004 27.592 58.7077 27.55 58.829 27.55C58.9597 27.55 59.0624 27.592 59.137 27.676C59.221 27.76 59.263 27.8627 59.263 27.984C59.263 28.4413 59.2584 28.782 59.249 29.006L59.235 30.028C59.235 30.5413 59.2444 31.1153 59.263 31.75C59.3097 33.0473 59.5337 34.13 59.935 34.998C60.3457 35.866 61.083 36.3 62.147 36.3C63.015 36.3 63.6964 36.034 64.191 35.502C64.6857 34.9607 64.989 34.1907 65.101 33.192C65.185 32.3893 65.227 31.442 65.227 30.35L65.213 28.012C65.213 27.8907 65.2504 27.7833 65.325 27.69C65.3997 27.5967 65.507 27.55 65.647 27.55C65.7777 27.55 65.885 27.5967 65.969 27.69C66.053 27.774 66.095 27.872 66.095 27.984C66.095 28.0307 66.1044 28.32 66.123 28.852C66.1417 29.3747 66.151 29.902 66.151 30.434C66.151 31.4793 66.095 32.436 65.983 33.304C65.6564 35.824 64.3684 37.084 62.119 37.084ZM70.3287 37.098C69.8154 37.098 69.2414 37.0187 68.6067 36.86C68.5041 36.832 68.4201 36.776 68.3547 36.692C68.2894 36.608 68.2567 36.5147 68.2567 36.412V27.998C68.2567 27.8767 68.2987 27.774 68.3827 27.69C68.4761 27.606 68.5881 27.564 68.7187 27.564C69.6801 27.564 70.6461 27.7087 71.6167 27.998C72.5967 28.278 73.4414 28.8147 74.1507 29.608C74.8694 30.392 75.2287 31.4793 75.2287 32.87C75.2287 33.8127 75.0141 34.6013 74.5847 35.236C74.1554 35.8707 73.5721 36.342 72.8347 36.65C72.0974 36.9487 71.2621 37.098 70.3287 37.098ZM70.3287 36.202C71.5701 36.202 72.5454 35.922 73.2547 35.362C73.9641 34.7927 74.3187 33.962 74.3187 32.87C74.3187 31.4047 73.8427 30.322 72.8907 29.622C71.9387 28.922 70.6974 28.5347 69.1667 28.46V36.062C69.6614 36.1553 70.0487 36.202 70.3287 36.202ZM76.4693 37C76.3386 37 76.2266 36.958 76.1333 36.874C76.0493 36.79 76.0073 36.6873 76.0073 36.566C76.0073 36.4447 76.0493 36.3467 76.1333 36.272C76.2266 36.188 76.3386 36.146 76.4693 36.146H77.7993V28.474H76.4693C76.3386 28.474 76.2266 28.432 76.1333 28.348C76.0493 28.264 76.0073 28.1613 76.0073 28.04C76.0073 27.9187 76.0493 27.8207 76.1333 27.746C76.2266 27.662 76.3386 27.62 76.4693 27.62H80.0113C80.1326 27.62 80.2353 27.662 80.3193 27.746C80.4033 27.8207 80.4453 27.9187 80.4453 28.04C80.4453 28.1613 80.4033 28.264 80.3193 28.348C80.2353 28.432 80.1326 28.474 80.0113 28.474H78.6953V36.146H80.0113C80.1419 36.146 80.2446 36.188 80.3193 36.272C80.4033 36.3467 80.4453 36.4447 80.4453 36.566C80.4453 36.6873 80.4033 36.79 80.3193 36.874C80.2353 36.958 80.1326 37 80.0113 37H76.4693ZM84.7615 37.084C84.0802 37.084 83.4689 36.8973 82.9275 36.524C82.3955 36.1413 81.9802 35.6187 81.6815 34.956C81.3829 34.284 81.2335 33.5327 81.2335 32.702C81.2335 31.7687 81.4202 30.9053 81.7935 30.112C82.1669 29.3187 82.6709 28.6933 83.3055 28.236C83.9402 27.7693 84.6262 27.536 85.3635 27.536C86.0542 27.536 86.6655 27.7273 87.1975 28.11C87.7295 28.4833 88.1449 29.006 88.4435 29.678C88.7422 30.35 88.8915 31.1013 88.8915 31.932C88.8915 32.8653 88.7049 33.7287 88.3315 34.522C87.9582 35.306 87.4542 35.9313 86.8195 36.398C86.1849 36.8553 85.4989 37.084 84.7615 37.084ZM84.8175 36.216C85.3775 36.216 85.8955 36.0247 86.3715 35.642C86.8569 35.2593 87.2442 34.7413 87.5335 34.088C87.8229 33.4347 87.9675 32.73 87.9675 31.974C87.9675 31.274 87.8509 30.6533 87.6175 30.112C87.3842 29.5707 87.0622 29.1507 86.6515 28.852C86.2502 28.5533 85.7975 28.404 85.2935 28.404C84.7429 28.404 84.2249 28.5953 83.7395 28.978C83.2542 29.3513 82.8669 29.8647 82.5775 30.518C82.2975 31.1713 82.1575 31.89 82.1575 32.674C82.1575 33.3833 82.2742 34.0087 82.5075 34.55C82.7502 35.082 83.0722 35.4927 83.4735 35.782C83.8749 36.0713 84.3229 36.216 84.8175 36.216Z" fill="white"/>
</svg>
